<svg width="249" height="111" viewBox="0 0 249 111" fill="none" xmlns="http://www.w3.org/2000/svg">
<path d="M88.772 24.5539C82.645 21.6978 76.0113 19.6247 69.1012 18.427C69.0406 18.425 68.9803 18.4364 68.9246 18.4603C68.8689 18.4842 68.8191 18.52 68.7787 18.5652C67.9495 20.0854 66.9821 22.0663 66.3371 23.5865C59.0078 22.4809 51.5541 22.4809 44.2248 23.5865C43.5798 22.0202 42.6124 20.0854 41.7371 18.5652C41.6911 18.473 41.5528 18.427 41.4146 18.427C34.5045 19.6247 27.9169 21.6978 21.7438 24.5539C21.6978 24.5539 21.6517 24.6 21.6056 24.6461C9.07529 43.3955 5.62023 61.6382 7.32473 79.6967C7.32473 79.7888 7.3708 79.881 7.46293 79.927C15.7551 86.0079 23.7247 89.6933 31.6023 92.1349C31.7405 92.181 31.8787 92.1349 31.9247 92.0428C33.7674 89.5091 35.4259 86.8371 36.854 84.027C36.9461 83.8428 36.854 83.6585 36.6697 83.6124C34.0439 82.5989 31.5562 81.4012 29.1146 80.0192C28.9304 79.927 28.9304 79.6506 29.0686 79.5124C29.5753 79.1439 30.082 78.7293 30.5888 78.3607C30.6809 78.2686 30.8191 78.2686 30.9113 78.3147C46.7585 85.5473 63.8495 85.5473 79.5124 78.3147C79.6046 78.2686 79.7428 78.2686 79.8349 78.3607C80.3416 78.7753 80.8484 79.1439 81.3551 79.5585C81.5394 79.6967 81.5394 79.9731 81.3091 80.0652C78.9135 81.4933 76.3798 82.645 73.754 83.6585C73.5697 83.7046 73.5237 83.9349 73.5697 84.0731C75.0439 86.8832 76.7023 89.5551 78.4989 92.0888C78.6371 92.1349 78.7753 92.181 78.9135 92.1349C86.8371 89.6933 94.8068 86.0079 103.099 79.927C103.191 79.881 103.237 79.7888 103.237 79.6967C105.264 58.8281 99.8742 40.7236 88.9562 24.6461C88.9102 24.6 88.8641 24.5539 88.772 24.5539ZM39.2495 68.6866C34.5045 68.6866 30.5427 64.3102 30.5427 58.9203C30.5427 53.5304 34.4124 49.154 39.2495 49.154C44.1326 49.154 48.0023 53.5764 47.9562 58.9203C47.9562 64.3102 44.0866 68.6866 39.2495 68.6866ZM71.3585 68.6866C66.6135 68.6866 62.6517 64.3102 62.6517 58.9203C62.6517 53.5304 66.5214 49.154 71.3585 49.154C76.2416 49.154 80.1113 53.5764 80.0652 58.9203C80.0652 64.3102 76.2416 68.6866 71.3585 68.6866Z" fill="white"/>
<path d="M218.002 46.6587C219.249 44.4993 222.365 44.4993 223.612 46.6587L248.057 88.9985C249.304 91.158 247.745 93.8572 245.252 93.8572H196.362C193.869 93.8572 192.31 91.158 193.557 88.9985L218.002 46.6587Z" fill="#BFBFBF" fill-opacity="0.5"/>
<path d="M218.002 32.7768C219.249 30.6174 222.365 30.6174 223.612 32.7768L248.057 75.1168C249.304 77.2761 247.745 79.9754 245.252 79.9754H196.362C193.869 79.9754 192.31 77.2761 193.557 75.1168L218.002 32.7768Z" fill="#8F8F8F"/>
<path d="M218.002 18.8949C219.249 16.7355 222.365 16.7355 223.612 18.8949L248.057 61.2349C249.304 63.3942 247.745 66.0935 245.252 66.0935H196.362C193.869 66.0935 192.31 63.3942 193.557 61.2349L218.002 18.8949Z" fill="white"/>
<path fill-rule="evenodd" clip-rule="evenodd" d="M132.897 50.3948C132.249 49.7468 131.885 48.868 131.885 47.9517C131.885 47.0353 132.249 46.1565 132.897 45.5086L135.34 43.0655C135.988 42.4175 136.867 42.0535 137.783 42.0535C138.7 42.0535 139.578 42.4175 140.226 43.0655L145.113 47.9517L149.999 43.0655C150.647 42.4175 151.526 42.0535 152.442 42.0535C153.358 42.0535 154.237 42.4175 154.885 43.0655L157.328 45.5086C157.976 46.1565 158.34 47.0353 158.34 47.9517C158.34 48.868 157.976 49.7468 157.328 50.3948L152.442 55.2809L157.328 60.1671C157.976 60.8151 158.34 61.6939 158.34 62.6102C158.34 63.5266 157.976 64.4054 157.328 65.0533L154.885 67.4964C154.237 68.1444 153.358 68.5084 152.442 68.5084C151.526 68.5084 150.647 68.1444 149.999 67.4964L145.113 62.6102L140.226 67.4964C139.578 68.1444 138.7 68.5084 137.783 68.5084C136.867 68.5084 135.988 68.1444 135.34 67.4964L132.897 65.0533C132.249 64.4054 131.885 63.5266 131.885 62.6102C131.885 61.6939 132.249 60.8151 132.897 60.1671L137.783 55.2809L132.897 50.3948Z" fill="white"/>
</svg>
