<svg width="117" height="117" viewBox="0 0 117 117" fill="none" xmlns="http://www.w3.org/2000/svg">
<g clip-path="url(#clip0_47_689)">
<path d="M57.5 87C49.6761 87 42.1727 83.9447 36.6404 78.5061C31.108 73.0675 28 65.6913 28 58C28 50.3087 31.108 42.9325 36.6404 37.4939C42.1727 32.0553 49.6761 29 57.5 29C65.3239 29 72.8273 32.0553 78.3597 37.4939C83.892 42.9325 87 50.3087 87 58C87 65.6913 83.892 73.0675 78.3597 78.5061C72.8273 83.9447 65.3239 87 57.5 87ZM80.3625 63.8C81.3604 59.9956 81.3604 56.0044 80.3625 52.2H69.0935C69.3669 56.062 69.3669 59.938 69.0935 63.8H80.3625ZM77.9435 69.6H68.4445C67.9504 73.0955 67.0088 76.5156 65.642 79.779C70.8243 77.8997 75.1756 74.2991 77.9435 69.6ZM51.836 63.8H63.164C63.4842 59.9397 63.4842 56.0603 63.164 52.2H51.836C51.5158 56.0603 51.5158 59.9397 51.836 63.8ZM52.5735 69.6C53.783 76.56 55.907 81.2 57.5 81.2C59.093 81.2 61.217 76.56 62.4265 69.6H52.5735ZM34.6375 63.8H45.9065C45.6331 59.938 45.6331 56.062 45.9065 52.2H34.6375C33.6396 56.0044 33.6396 59.9956 34.6375 63.8ZM37.0565 69.6C39.8244 74.2991 44.1757 77.8997 49.358 79.779C48.119 76.995 47.175 73.515 46.5555 69.6H37.0565ZM77.9435 46.4C75.1756 41.7009 70.8243 38.1003 65.642 36.221C66.881 39.005 67.825 42.485 68.4445 46.4H77.9435ZM52.5735 46.4H62.4265C61.217 39.44 59.093 34.8 57.5 34.8C55.907 34.8 53.783 39.44 52.5735 46.4ZM37.0565 46.4H46.5555C47.1455 42.485 48.119 39.005 49.358 36.221C44.1757 38.1003 39.8244 41.7009 37.0565 46.4Z" fill="#BEBEBE"/>
</g>
<path d="M58.5 9.75C85.3125 9.75 107.25 31.6875 107.25 58.5C107.25 85.3125 85.3125 107.25 58.5 107.25C31.6875 107.25 9.75 85.3125 9.75 58.5C9.75 31.6875 31.6875 9.75 58.5 9.75ZM58.5 19.5C49.2375 19.5 40.95 22.425 34.6125 27.7875L89.2125 82.3875C94.0875 75.5625 97.5 67.275 97.5 58.5C97.5 37.05 79.95 19.5 58.5 19.5ZM82.3875 89.2125L27.7875 34.6125C22.425 40.95 19.5 49.2375 19.5 58.5C19.5 79.95 37.05 97.5 58.5 97.5C67.7625 97.5 76.05 94.575 82.3875 89.2125Z" fill="white"/>
<defs>
<clipPath id="clip0_47_689">
<rect width="59" height="58" fill="white" transform="translate(28 29)"/>
</clipPath>
</defs>
</svg>
